<?xml version="1.0" encoding="UTF-8" standalone="no"?>
<!DOCTYPE svg PUBLIC "-//W3C//DTD SVG 1.1//EN"
 "http://www.w3.org/Graphics/SVG/1.1/DTD/svg11.dtd">
<!-- Generated by graphviz version 2.38.0 (20140413.2041)
 -->
<!-- Title: snakemake_dag Pages: 1 -->
<svg width="220pt" height="476pt"
 viewBox="0.00 0.00 220.00 476.00" xmlns="http://www.w3.org/2000/svg" xmlns:xlink="http://www.w3.org/1999/xlink">
<g id="graph0" class="graph" transform="scale(1 1) rotate(0) translate(4 472)">
<title>snakemake_dag</title>
<polygon fill="white" stroke="none" points="-4,4 -4,-472 216,-472 216,4 -4,4"/>
<!-- 0 -->
<g id="node1" class="node"><title>0</title>
<path fill="none" stroke="#56d8c9" stroke-width="2" d="M121,-36C121,-36 91,-36 91,-36 85,-36 79,-30 79,-24 79,-24 79,-12 79,-12 79,-6 85,-0 91,-0 91,-0 121,-0 121,-0 127,-0 133,-6 133,-12 133,-12 133,-24 133,-24 133,-30 127,-36 121,-36"/>
<text text-anchor="middle" x="106" y="-15.5" font-family="sans" font-size="10.00">TPA_all</text>
</g>
<!-- 1 -->
<g id="node2" class="node"><title>1</title>
<path fill="none" stroke="#c6d856" stroke-width="2" d="M200,-108C200,-108 12,-108 12,-108 6,-108 0,-102 0,-96 0,-96 0,-84 0,-84 0,-78 6,-72 12,-72 12,-72 200,-72 200,-72 206,-72 212,-78 212,-84 212,-84 212,-96 212,-96 212,-102 206,-108 200,-108"/>
<text text-anchor="middle" x="106" y="-87.5" font-family="sans" font-size="10.00">TPA_extract_representative_sites_coord</text>
</g>
<!-- 1&#45;&gt;0 -->
<g id="edge1" class="edge"><title>1&#45;&gt;0</title>
<path fill="none" stroke="grey" stroke-width="2" d="M106,-71.6966C106,-63.9827 106,-54.7125 106,-46.1124"/>
<polygon fill="grey" stroke="grey" stroke-width="2" points="109.5,-46.1043 106,-36.1043 102.5,-46.1044 109.5,-46.1043"/>
</g>
<!-- 2 -->
<g id="node3" class="node"><title>2</title>
<path fill="none" stroke="#d8a456" stroke-width="2" d="M192.5,-180C192.5,-180 19.5,-180 19.5,-180 13.5,-180 7.5,-174 7.5,-168 7.5,-168 7.5,-156 7.5,-156 7.5,-150 13.5,-144 19.5,-144 19.5,-144 192.5,-144 192.5,-144 198.5,-144 204.5,-150 204.5,-156 204.5,-156 204.5,-168 204.5,-168 204.5,-174 198.5,-180 192.5,-180"/>
<text text-anchor="middle" x="106" y="-159.5" font-family="sans" font-size="10.00">TPA_filter_on_ambiguous_annotation</text>
</g>
<!-- 2&#45;&gt;1 -->
<g id="edge2" class="edge"><title>2&#45;&gt;1</title>
<path fill="none" stroke="grey" stroke-width="2" d="M106,-143.697C106,-135.983 106,-126.712 106,-118.112"/>
<polygon fill="grey" stroke="grey" stroke-width="2" points="109.5,-118.104 106,-108.104 102.5,-118.104 109.5,-118.104"/>
</g>
<!-- 3 -->
<g id="node4" class="node"><title>3</title>
<path fill="none" stroke="#78d856" stroke-width="2" d="M177.5,-252C177.5,-252 34.5,-252 34.5,-252 28.5,-252 22.5,-246 22.5,-240 22.5,-240 22.5,-228 22.5,-228 22.5,-222 28.5,-216 34.5,-216 34.5,-216 177.5,-216 177.5,-216 183.5,-216 189.5,-222 189.5,-228 189.5,-228 189.5,-240 189.5,-240 189.5,-246 183.5,-252 177.5,-252"/>
<text text-anchor="middle" x="106" y="-231.5" font-family="sans" font-size="10.00">TPA_select_terminal_exon_pas</text>
</g>
<!-- 3&#45;&gt;2 -->
<g id="edge3" class="edge"><title>3&#45;&gt;2</title>
<path fill="none" stroke="grey" stroke-width="2" d="M106,-215.697C106,-207.983 106,-198.712 106,-190.112"/>
<polygon fill="grey" stroke="grey" stroke-width="2" points="109.5,-190.104 106,-180.104 102.5,-190.104 109.5,-190.104"/>
</g>
<!-- 4 -->
<g id="node5" class="node"><title>4</title>
<path fill="none" stroke="#56d87b" stroke-width="2" d="M161,-324C161,-324 51,-324 51,-324 45,-324 39,-318 39,-312 39,-312 39,-300 39,-300 39,-294 45,-288 51,-288 51,-288 161,-288 161,-288 167,-288 173,-294 173,-300 173,-300 173,-312 173,-312 173,-318 167,-324 161,-324"/>
<text text-anchor="middle" x="106" y="-303.5" font-family="sans" font-size="10.00">TPA_select_tandem_pas</text>
</g>
<!-- 4&#45;&gt;3 -->
<g id="edge4" class="edge"><title>4&#45;&gt;3</title>
<path fill="none" stroke="grey" stroke-width="2" d="M106,-287.697C106,-279.983 106,-270.712 106,-262.112"/>
<polygon fill="grey" stroke="grey" stroke-width="2" points="109.5,-262.104 106,-252.104 102.5,-262.104 109.5,-262.104"/>
</g>
<!-- 5 -->
<g id="node6" class="node"><title>5</title>
<path fill="none" stroke="#56a2d8" stroke-width="2" d="M192,-396C192,-396 20,-396 20,-396 14,-396 8,-390 8,-384 8,-384 8,-372 8,-372 8,-366 14,-360 20,-360 20,-360 192,-360 192,-360 198,-360 204,-366 204,-372 204,-372 204,-384 204,-384 204,-390 198,-396 192,-396"/>
<text text-anchor="middle" x="106" y="-375.5" font-family="sans" font-size="10.00">TPA_reformat_pas_atlas_bed_names</text>
</g>
<!-- 5&#45;&gt;4 -->
<g id="edge5" class="edge"><title>5&#45;&gt;4</title>
<path fill="none" stroke="grey" stroke-width="2" d="M106,-359.697C106,-351.983 106,-342.712 106,-334.112"/>
<polygon fill="grey" stroke="grey" stroke-width="2" points="109.5,-334.104 106,-324.104 102.5,-334.104 109.5,-334.104"/>
</g>
<!-- 6 -->
<g id="node7" class="node"><title>6</title>
<path fill="none" stroke="#d85656" stroke-width="2" d="M146,-468C146,-468 66,-468 66,-468 60,-468 54,-462 54,-456 54,-456 54,-444 54,-444 54,-438 60,-432 66,-432 66,-432 146,-432 146,-432 152,-432 158,-438 158,-444 158,-444 158,-456 158,-456 158,-462 152,-468 146,-468"/>
<text text-anchor="middle" x="106" y="-447.5" font-family="sans" font-size="10.00">TPA_create_outdir</text>
</g>
<!-- 6&#45;&gt;5 -->
<g id="edge6" class="edge"><title>6&#45;&gt;5</title>
<path fill="none" stroke="grey" stroke-width="2" d="M106,-431.697C106,-423.983 106,-414.712 106,-406.112"/>
<polygon fill="grey" stroke="grey" stroke-width="2" points="109.5,-406.104 106,-396.104 102.5,-406.104 109.5,-406.104"/>
</g>
</g>
</svg>
