<?xml version="1.0" encoding="UTF-8" standalone="no"?>
<!DOCTYPE svg PUBLIC "-//W3C//DTD SVG 1.1//EN"
 "http://www.w3.org/Graphics/SVG/1.1/DTD/svg11.dtd">
<!-- Generated by graphviz version 2.47.2 (20210527.1257)
 -->
<!-- Title: snakemake_dag Pages: 1 -->
<svg width="207pt" height="404pt"
 viewBox="0.00 0.00 207.00 404.00" xmlns="http://www.w3.org/2000/svg" xmlns:xlink="http://www.w3.org/1999/xlink">
<g id="graph0" class="graph" transform="scale(1 1) rotate(0) translate(4 400)">
<title>snakemake_dag</title>
<polygon fill="white" stroke="transparent" points="-4,4 -4,-400 203,-400 203,4 -4,4"/>
<!-- 0 -->
<g id="node1" class="node">
<title>0</title>
<path fill="none" stroke="#59d856" stroke-width="2" d="M114.5,-36C114.5,-36 84.5,-36 84.5,-36 78.5,-36 72.5,-30 72.5,-24 72.5,-24 72.5,-12 72.5,-12 72.5,-6 78.5,0 84.5,0 84.5,0 114.5,0 114.5,0 120.5,0 126.5,-6 126.5,-12 126.5,-12 126.5,-24 126.5,-24 126.5,-30 120.5,-36 114.5,-36"/>
<text text-anchor="middle" x="99.5" y="-15.5" font-family="sans" font-size="10.00">TPA_all</text>
</g>
<!-- 1 -->
<g id="node2" class="node">
<title>1</title>
<path fill="none" stroke="#d8ac56" stroke-width="2" d="M187,-108C187,-108 12,-108 12,-108 6,-108 0,-102 0,-96 0,-96 0,-84 0,-84 0,-78 6,-72 12,-72 12,-72 187,-72 187,-72 193,-72 199,-78 199,-84 199,-84 199,-96 199,-96 199,-102 193,-108 187,-108"/>
<text text-anchor="middle" x="99.5" y="-87.5" font-family="sans" font-size="10.00">TPA_extract_representative_sites_coord</text>
</g>
<!-- 1&#45;&gt;0 -->
<g id="edge1" class="edge">
<title>1&#45;&gt;0</title>
<path fill="none" stroke="grey" stroke-width="2" d="M99.5,-71.7C99.5,-63.98 99.5,-54.71 99.5,-46.11"/>
<polygon fill="grey" stroke="grey" stroke-width="2" points="103,-46.1 99.5,-36.1 96,-46.1 103,-46.1"/>
</g>
<!-- 2 -->
<g id="node3" class="node">
<title>2</title>
<path fill="none" stroke="#56d8a9" stroke-width="2" d="M181.5,-180C181.5,-180 17.5,-180 17.5,-180 11.5,-180 5.5,-174 5.5,-168 5.5,-168 5.5,-156 5.5,-156 5.5,-150 11.5,-144 17.5,-144 17.5,-144 181.5,-144 181.5,-144 187.5,-144 193.5,-150 193.5,-156 193.5,-156 193.5,-168 193.5,-168 193.5,-174 187.5,-180 181.5,-180"/>
<text text-anchor="middle" x="99.5" y="-159.5" font-family="sans" font-size="10.00">TPA_filter_on_ambiguous_annotation</text>
</g>
<!-- 2&#45;&gt;1 -->
<g id="edge2" class="edge">
<title>2&#45;&gt;1</title>
<path fill="none" stroke="grey" stroke-width="2" d="M99.5,-143.7C99.5,-135.98 99.5,-126.71 99.5,-118.11"/>
<polygon fill="grey" stroke="grey" stroke-width="2" points="103,-118.1 99.5,-108.1 96,-118.1 103,-118.1"/>
</g>
<!-- 3 -->
<g id="node4" class="node">
<title>3</title>
<path fill="none" stroke="#d85656" stroke-width="2" d="M165.5,-252C165.5,-252 33.5,-252 33.5,-252 27.5,-252 21.5,-246 21.5,-240 21.5,-240 21.5,-228 21.5,-228 21.5,-222 27.5,-216 33.5,-216 33.5,-216 165.5,-216 165.5,-216 171.5,-216 177.5,-222 177.5,-228 177.5,-228 177.5,-240 177.5,-240 177.5,-246 171.5,-252 165.5,-252"/>
<text text-anchor="middle" x="99.5" y="-231.5" font-family="sans" font-size="10.00">TPA_select_terminal_exon_pas</text>
</g>
<!-- 3&#45;&gt;2 -->
<g id="edge3" class="edge">
<title>3&#45;&gt;2</title>
<path fill="none" stroke="grey" stroke-width="2" d="M99.5,-215.7C99.5,-207.98 99.5,-198.71 99.5,-190.11"/>
<polygon fill="grey" stroke="grey" stroke-width="2" points="103,-190.1 99.5,-180.1 96,-190.1 103,-190.1"/>
</g>
<!-- 4 -->
<g id="node5" class="node">
<title>4</title>
<path fill="none" stroke="#afd856" stroke-width="2" d="M150.5,-324C150.5,-324 48.5,-324 48.5,-324 42.5,-324 36.5,-318 36.5,-312 36.5,-312 36.5,-300 36.5,-300 36.5,-294 42.5,-288 48.5,-288 48.5,-288 150.5,-288 150.5,-288 156.5,-288 162.5,-294 162.5,-300 162.5,-300 162.5,-312 162.5,-312 162.5,-318 156.5,-324 150.5,-324"/>
<text text-anchor="middle" x="99.5" y="-303.5" font-family="sans" font-size="10.00">TPA_select_tandem_pas</text>
</g>
<!-- 4&#45;&gt;3 -->
<g id="edge4" class="edge">
<title>4&#45;&gt;3</title>
<path fill="none" stroke="grey" stroke-width="2" d="M99.5,-287.7C99.5,-279.98 99.5,-270.71 99.5,-262.11"/>
<polygon fill="grey" stroke="grey" stroke-width="2" points="103,-262.1 99.5,-252.1 96,-262.1 103,-262.1"/>
</g>
<!-- 5 -->
<g id="node6" class="node">
<title>5</title>
<path fill="none" stroke="#56a9d8" stroke-width="2" d="M138,-396C138,-396 61,-396 61,-396 55,-396 49,-390 49,-384 49,-384 49,-372 49,-372 49,-366 55,-360 61,-360 61,-360 138,-360 138,-360 144,-360 150,-366 150,-372 150,-372 150,-384 150,-384 150,-390 144,-396 138,-396"/>
<text text-anchor="middle" x="99.5" y="-375.5" font-family="sans" font-size="10.00">TPA_create_outdir</text>
</g>
<!-- 5&#45;&gt;4 -->
<g id="edge5" class="edge">
<title>5&#45;&gt;4</title>
<path fill="none" stroke="grey" stroke-width="2" d="M99.5,-359.7C99.5,-351.98 99.5,-342.71 99.5,-334.11"/>
<polygon fill="grey" stroke="grey" stroke-width="2" points="103,-334.1 99.5,-324.1 96,-334.1 103,-334.1"/>
</g>
</g>
</svg>
