<?xml version="1.0" encoding="UTF-8" standalone="no"?>
<!DOCTYPE svg PUBLIC "-//W3C//DTD SVG 1.1//EN"
 "http://www.w3.org/Graphics/SVG/1.1/DTD/svg11.dtd">
<!-- Generated by graphviz version 2.38.0 (20140413.2041)
 -->
<!-- Title: snakemake_dag Pages: 1 -->
<svg width="841pt" height="764pt"
 viewBox="0.00 0.00 840.50 764.00" xmlns="http://www.w3.org/2000/svg" xmlns:xlink="http://www.w3.org/1999/xlink">
<g id="graph0" class="graph" transform="scale(1 1) rotate(0) translate(4 760)">
<title>snakemake_dag</title>
<polygon fill="white" stroke="none" points="-4,4 -4,-760 836.5,-760 836.5,4 -4,4"/>
<!-- 0 -->
<g id="node1" class="node"><title>0</title>
<path fill="none" stroke="#568ad8" stroke-width="2" d="M396,-36C396,-36 366,-36 366,-36 360,-36 354,-30 354,-24 354,-24 354,-12 354,-12 354,-6 360,-0 366,-0 366,-0 396,-0 396,-0 402,-0 408,-6 408,-12 408,-12 408,-24 408,-24 408,-30 402,-36 396,-36"/>
<text text-anchor="middle" x="381" y="-15.5" font-family="sans" font-size="10.00">PQA_all</text>
</g>
<!-- 1 -->
<g id="node2" class="node"><title>1</title>
<path fill="none" stroke="#d88d56" stroke-width="2" d="M299,-540C299,-540 225,-540 225,-540 219,-540 213,-534 213,-528 213,-528 213,-516 213,-516 213,-510 219,-504 225,-504 225,-504 299,-504 299,-504 305,-504 311,-510 311,-516 311,-516 311,-528 311,-528 311,-534 305,-540 299,-540"/>
<text text-anchor="middle" x="262" y="-519.5" font-family="sans" font-size="10.00">PQA_align_reads</text>
</g>
<!-- 1&#45;&gt;0 -->
<g id="edge2" class="edge"><title>1&#45;&gt;0</title>
<path fill="none" stroke="grey" stroke-width="2" d="M253.905,-503.949C242.217,-477.72 222,-425.614 222,-379 222,-379 222,-379 222,-161 222,-95.7324 297.452,-53.0017 344.403,-32.7301"/>
<polygon fill="grey" stroke="grey" stroke-width="2" points="345.789,-35.9443 353.667,-28.8601 343.091,-29.4852 345.789,-35.9443"/>
</g>
<!-- 16 -->
<g id="node17" class="node"><title>16</title>
<path fill="none" stroke="#56a2d8" stroke-width="2" d="M425,-468C425,-468 315,-468 315,-468 309,-468 303,-462 303,-456 303,-456 303,-444 303,-444 303,-438 309,-432 315,-432 315,-432 425,-432 425,-432 431,-432 437,-438 437,-444 437,-444 437,-456 437,-456 437,-462 431,-468 425,-468"/>
<text text-anchor="middle" x="370" y="-447.5" font-family="sans" font-size="10.00">PQA_sort_aligned_reads</text>
</g>
<!-- 1&#45;&gt;16 -->
<g id="edge21" class="edge"><title>1&#45;&gt;16</title>
<path fill="none" stroke="grey" stroke-width="2" d="M288.42,-503.876C302.41,-494.808 319.776,-483.552 334.886,-473.759"/>
<polygon fill="grey" stroke="grey" stroke-width="2" points="336.991,-476.566 343.479,-468.19 333.183,-470.692 336.991,-476.566"/>
</g>
<!-- 2 -->
<g id="node3" class="node"><title>2</title>
<path fill="none" stroke="#56d8a2" stroke-width="2" d="M594,-108C594,-108 486,-108 486,-108 480,-108 474,-102 474,-96 474,-96 474,-84 474,-84 474,-78 480,-72 486,-72 486,-72 594,-72 594,-72 600,-72 606,-78 606,-84 606,-84 606,-96 606,-96 606,-102 600,-108 594,-108"/>
<text text-anchor="middle" x="540" y="-87.5" font-family="sans" font-size="10.00">PQA_filter_design_table</text>
</g>
<!-- 2&#45;&gt;0 -->
<g id="edge1" class="edge"><title>2&#45;&gt;0</title>
<path fill="none" stroke="grey" stroke-width="2" d="M501.104,-71.8761C475.506,-60.6065 442.231,-45.957 417.198,-34.9364"/>
<polygon fill="grey" stroke="grey" stroke-width="2" points="418.604,-31.731 408.041,-30.9049 415.783,-38.1376 418.604,-31.731"/>
</g>
<!-- 3 -->
<g id="node4" class="node"><title>3</title>
<path fill="none" stroke="#d8a456" stroke-width="2" d="M550,-612C550,-612 386,-612 386,-612 380,-612 374,-606 374,-600 374,-600 374,-588 374,-588 374,-582 380,-576 386,-576 386,-576 550,-576 550,-576 556,-576 562,-582 562,-588 562,-588 562,-600 562,-600 562,-606 556,-612 550,-612"/>
<text text-anchor="middle" x="468" y="-591.5" font-family="sans" font-size="10.00">PQA_remove_polyA_polyT_tails_pe</text>
</g>
<!-- 3&#45;&gt;1 -->
<g id="edge3" class="edge"><title>3&#45;&gt;1</title>
<path fill="none" stroke="grey" stroke-width="2" d="M417.87,-575.966C388.64,-566.033 351.615,-553.452 320.987,-543.044"/>
<polygon fill="grey" stroke="grey" stroke-width="2" points="321.879,-539.651 311.285,-539.747 319.627,-546.279 321.879,-539.651"/>
</g>
<!-- 4 -->
<g id="node5" class="node"><title>4</title>
<path fill="none" stroke="#56d8d8" stroke-width="2" d="M138,-612C138,-612 12,-612 12,-612 6,-612 1.42109e-14,-606 1.42109e-14,-600 1.42109e-14,-600 1.42109e-14,-588 1.42109e-14,-588 1.42109e-14,-582 6,-576 12,-576 12,-576 138,-576 138,-576 144,-576 150,-582 150,-588 150,-588 150,-600 150,-600 150,-606 144,-612 138,-612"/>
<text text-anchor="middle" x="75" y="-591.5" font-family="sans" font-size="10.00">PQA_create_genome_index</text>
</g>
<!-- 4&#45;&gt;1 -->
<g id="edge5" class="edge"><title>4&#45;&gt;1</title>
<path fill="none" stroke="grey" stroke-width="2" d="M120.745,-575.876C146.764,-566.137 179.526,-553.872 206.947,-543.608"/>
<polygon fill="grey" stroke="grey" stroke-width="2" points="208.265,-546.852 216.403,-540.068 205.811,-540.296 208.265,-546.852"/>
</g>
<!-- 5 -->
<g id="node6" class="node"><title>5</title>
<path fill="none" stroke="#70d856" stroke-width="2" d="M344,-612C344,-612 180,-612 180,-612 174,-612 168,-606 168,-600 168,-600 168,-588 168,-588 168,-582 174,-576 180,-576 180,-576 344,-576 344,-576 350,-576 356,-582 356,-588 356,-588 356,-600 356,-600 356,-606 350,-612 344,-612"/>
<text text-anchor="middle" x="262" y="-591.5" font-family="sans" font-size="10.00">PQA_remove_polyA_polyT_tails_se</text>
</g>
<!-- 5&#45;&gt;1 -->
<g id="edge4" class="edge"><title>5&#45;&gt;1</title>
<path fill="none" stroke="grey" stroke-width="2" d="M262,-575.697C262,-567.983 262,-558.712 262,-550.112"/>
<polygon fill="grey" stroke="grey" stroke-width="2" points="265.5,-550.104 262,-540.104 258.5,-550.104 265.5,-550.104"/>
</g>
<!-- 6 -->
<g id="node7" class="node"><title>6</title>
<path fill="none" stroke="#d8bc56" stroke-width="2" d="M710,-252C710,-252 538,-252 538,-252 532,-252 526,-246 526,-240 526,-240 526,-228 526,-228 526,-222 532,-216 538,-216 538,-216 710,-216 710,-216 716,-216 722,-222 722,-228 722,-228 722,-240 722,-240 722,-246 716,-252 710,-252"/>
<text text-anchor="middle" x="624" y="-231.5" font-family="sans" font-size="10.00">PQA_merge_mapping_quality_tables</text>
</g>
<!-- 6&#45;&gt;2 -->
<g id="edge6" class="edge"><title>6&#45;&gt;2</title>
<path fill="none" stroke="grey" stroke-width="2" d="M614.407,-215.83C604.291,-197.827 587.799,-168.765 573,-144 567.635,-135.023 561.627,-125.284 556.222,-116.632"/>
<polygon fill="grey" stroke="grey" stroke-width="2" points="559.14,-114.698 550.86,-108.088 553.211,-118.419 559.14,-114.698"/>
</g>
<!-- 7 -->
<g id="node8" class="node"><title>7</title>
<path fill="none" stroke="#5673d8" stroke-width="2" d="M552,-180C552,-180 394,-180 394,-180 388,-180 382,-174 382,-168 382,-168 382,-156 382,-156 382,-150 388,-144 394,-144 394,-144 552,-144 552,-144 558,-144 564,-150 564,-156 564,-156 564,-168 564,-168 564,-174 558,-180 552,-180"/>
<text text-anchor="middle" x="473" y="-159.5" font-family="sans" font-size="10.00">PQA_calculate_median_TIN_score</text>
</g>
<!-- 7&#45;&gt;2 -->
<g id="edge7" class="edge"><title>7&#45;&gt;2</title>
<path fill="none" stroke="grey" stroke-width="2" d="M489.562,-143.697C497.675,-135.22 507.588,-124.864 516.471,-115.583"/>
<polygon fill="grey" stroke="grey" stroke-width="2" points="519.243,-117.749 523.629,-108.104 514.186,-112.908 519.243,-117.749"/>
</g>
<!-- 8 -->
<g id="node9" class="node"><title>8</title>
<path fill="none" stroke="#d6d856" stroke-width="2" d="M786.5,-468C786.5,-468 713.5,-468 713.5,-468 707.5,-468 701.5,-462 701.5,-456 701.5,-456 701.5,-444 701.5,-444 701.5,-438 707.5,-432 713.5,-432 713.5,-432 786.5,-432 786.5,-432 792.5,-432 798.5,-438 798.5,-444 798.5,-444 798.5,-456 798.5,-456 798.5,-462 792.5,-468 786.5,-468"/>
<text text-anchor="middle" x="750" y="-447.5" font-family="sans" font-size="10.00">PQA_run_FastQC</text>
</g>
<!-- 8&#45;&gt;2 -->
<g id="edge8" class="edge"><title>8&#45;&gt;2</title>
<path fill="none" stroke="grey" stroke-width="2" d="M750,-431.951C750,-405.292 750,-352.115 750,-307 750,-307 750,-307 750,-233 750,-166.192 676.162,-128.685 616.053,-109.221"/>
<polygon fill="grey" stroke="grey" stroke-width="2" points="616.746,-105.77 606.157,-106.136 614.662,-112.453 616.746,-105.77"/>
</g>
<!-- 9 -->
<g id="node10" class="node"><title>9</title>
<path fill="none" stroke="#88d856" stroke-width="2" d="M539.5,-684C539.5,-684 418.5,-684 418.5,-684 412.5,-684 406.5,-678 406.5,-672 406.5,-672 406.5,-660 406.5,-660 406.5,-654 412.5,-648 418.5,-648 418.5,-648 539.5,-648 539.5,-648 545.5,-648 551.5,-654 551.5,-660 551.5,-660 551.5,-672 551.5,-672 551.5,-678 545.5,-684 539.5,-684"/>
<text text-anchor="middle" x="479" y="-663.5" font-family="sans" font-size="10.00">PQA_remove_adapters_pe</text>
</g>
<!-- 9&#45;&gt;3 -->
<g id="edge9" class="edge"><title>9&#45;&gt;3</title>
<path fill="none" stroke="grey" stroke-width="2" d="M476.281,-647.697C475.069,-639.983 473.612,-630.712 472.261,-622.112"/>
<polygon fill="grey" stroke="grey" stroke-width="2" points="475.698,-621.44 470.688,-612.104 468.783,-622.526 475.698,-621.44"/>
</g>
<!-- 10 -->
<g id="node11" class="node"><title>10</title>
<path fill="none" stroke="#56d88a" stroke-width="2" d="M344,-684C344,-684 224,-684 224,-684 218,-684 212,-678 212,-672 212,-672 212,-660 212,-660 212,-654 218,-648 224,-648 224,-648 344,-648 344,-648 350,-648 356,-654 356,-660 356,-660 356,-672 356,-672 356,-678 350,-684 344,-684"/>
<text text-anchor="middle" x="284" y="-663.5" font-family="sans" font-size="10.00">PQA_remove_adapters_se</text>
</g>
<!-- 10&#45;&gt;5 -->
<g id="edge10" class="edge"><title>10&#45;&gt;5</title>
<path fill="none" stroke="grey" stroke-width="2" d="M278.562,-647.697C276.111,-639.898 273.16,-630.509 270.432,-621.829"/>
<polygon fill="grey" stroke="grey" stroke-width="2" points="273.713,-620.595 267.376,-612.104 267.035,-622.694 273.713,-620.595"/>
</g>
<!-- 11 -->
<g id="node12" class="node"><title>11</title>
<path fill="none" stroke="#d86e56" stroke-width="2" d="M697,-396C697,-396 551,-396 551,-396 545,-396 539,-390 539,-384 539,-384 539,-372 539,-372 539,-366 545,-360 551,-360 551,-360 697,-360 697,-360 703,-360 709,-366 709,-372 709,-372 709,-384 709,-384 709,-390 703,-396 697,-396"/>
<text text-anchor="middle" x="624" y="-375.5" font-family="sans" font-size="10.00">PQA_mapping_quality_analysis</text>
</g>
<!-- 11&#45;&gt;6 -->
<g id="edge11" class="edge"><title>11&#45;&gt;6</title>
<path fill="none" stroke="grey" stroke-width="2" d="M624,-359.871C624,-335.67 624,-291.211 624,-262.393"/>
<polygon fill="grey" stroke="grey" stroke-width="2" points="627.5,-262.189 624,-252.189 620.5,-262.189 627.5,-262.189"/>
</g>
<!-- 12 -->
<g id="node13" class="node"><title>12</title>
<path fill="none" stroke="#56d873" stroke-width="2" d="M496,-252C496,-252 388,-252 388,-252 382,-252 376,-246 376,-240 376,-240 376,-228 376,-228 376,-222 382,-216 388,-216 388,-216 496,-216 496,-216 502,-216 508,-222 508,-228 508,-228 508,-240 508,-240 508,-246 502,-252 496,-252"/>
<text text-anchor="middle" x="442" y="-231.5" font-family="sans" font-size="10.00">PQA_merge_TIN_scores</text>
</g>
<!-- 12&#45;&gt;7 -->
<g id="edge12" class="edge"><title>12&#45;&gt;7</title>
<path fill="none" stroke="grey" stroke-width="2" d="M449.663,-215.697C453.192,-207.728 457.456,-198.1 461.369,-189.264"/>
<polygon fill="grey" stroke="grey" stroke-width="2" points="464.576,-190.665 465.425,-180.104 458.176,-187.831 464.576,-190.665"/>
</g>
<!-- 13 -->
<g id="node14" class="node"><title>13</title>
<path fill="none" stroke="#59d856" stroke-width="2" d="M820.5,-684C820.5,-684 671.5,-684 671.5,-684 665.5,-684 659.5,-678 659.5,-672 659.5,-672 659.5,-660 659.5,-660 659.5,-654 665.5,-648 671.5,-648 671.5,-648 820.5,-648 820.5,-648 826.5,-648 832.5,-654 832.5,-660 832.5,-660 832.5,-672 832.5,-672 832.5,-678 826.5,-684 820.5,-684"/>
<text text-anchor="middle" x="746" y="-663.5" font-family="sans" font-size="10.00">PQA_prepare_adapters_textfiles</text>
</g>
<!-- 13&#45;&gt;8 -->
<g id="edge13" class="edge"><title>13&#45;&gt;8</title>
<path fill="none" stroke="grey" stroke-width="2" d="M746.321,-647.849C747.012,-610.832 748.651,-523.181 749.488,-478.386"/>
<polygon fill="grey" stroke="grey" stroke-width="2" points="752.99,-478.296 749.678,-468.232 745.992,-478.165 752.99,-478.296"/>
</g>
<!-- 14 -->
<g id="node15" class="node"><title>14</title>
<path fill="none" stroke="#56d8c1" stroke-width="2" d="M631.5,-756C631.5,-756 548.5,-756 548.5,-756 542.5,-756 536.5,-750 536.5,-744 536.5,-744 536.5,-732 536.5,-732 536.5,-726 542.5,-720 548.5,-720 548.5,-720 631.5,-720 631.5,-720 637.5,-720 643.5,-726 643.5,-732 643.5,-732 643.5,-744 643.5,-744 643.5,-750 637.5,-756 631.5,-756"/>
<text text-anchor="middle" x="590" y="-735.5" font-family="sans" font-size="10.00">PQA_create_outdir</text>
</g>
<!-- 14&#45;&gt;9 -->
<g id="edge14" class="edge"><title>14&#45;&gt;9</title>
<path fill="none" stroke="grey" stroke-width="2" d="M562.846,-719.876C548.467,-710.808 530.619,-699.552 515.09,-689.759"/>
<polygon fill="grey" stroke="grey" stroke-width="2" points="516.584,-686.564 506.258,-684.19 512.85,-692.484 516.584,-686.564"/>
</g>
<!-- 14&#45;&gt;10 -->
<g id="edge15" class="edge"><title>14&#45;&gt;10</title>
<path fill="none" stroke="grey" stroke-width="2" d="M536.349,-724.727C489.231,-713.948 419.967,-698.103 365.918,-685.74"/>
<polygon fill="grey" stroke="grey" stroke-width="2" points="366.541,-682.292 356.012,-683.473 364.98,-689.115 366.541,-682.292"/>
</g>
<!-- 14&#45;&gt;13 -->
<g id="edge19" class="edge"><title>14&#45;&gt;13</title>
<path fill="none" stroke="grey" stroke-width="2" d="M628.162,-719.876C649.393,-710.349 676.008,-698.407 698.569,-688.283"/>
<polygon fill="grey" stroke="grey" stroke-width="2" points="700.271,-691.356 707.962,-684.068 697.406,-684.969 700.271,-691.356"/>
</g>
<!-- 15 -->
<g id="node16" class="node"><title>15</title>
<path fill="none" stroke="#56c1d8" stroke-width="2" d="M710,-540C710,-540 546,-540 546,-540 540,-540 534,-534 534,-528 534,-528 534,-516 534,-516 534,-510 540,-504 546,-504 546,-504 710,-504 710,-504 716,-504 722,-510 722,-516 722,-516 722,-528 722,-528 722,-534 716,-540 710,-540"/>
<text text-anchor="middle" x="628" y="-519.5" font-family="sans" font-size="10.00">PQA_collapse_genomic_annotation</text>
</g>
<!-- 14&#45;&gt;15 -->
<g id="edge20" class="edge"><title>14&#45;&gt;15</title>
<path fill="none" stroke="grey" stroke-width="2" d="M595.022,-719.928C597.933,-709.596 601.504,-696.118 604,-684 613.629,-637.248 620.999,-582.102 624.9,-549.991"/>
<polygon fill="grey" stroke="grey" stroke-width="2" points="628.379,-550.374 626.088,-540.029 621.428,-549.544 628.379,-550.374"/>
</g>
<!-- 19 -->
<g id="node20" class="node"><title>19</title>
<path fill="none" stroke="#a7d856" stroke-width="2" d="M503.5,-540C503.5,-540 342.5,-540 342.5,-540 336.5,-540 330.5,-534 330.5,-528 330.5,-528 330.5,-516 330.5,-516 330.5,-510 336.5,-504 342.5,-504 342.5,-504 503.5,-504 503.5,-504 509.5,-504 515.5,-510 515.5,-516 515.5,-516 515.5,-528 515.5,-528 515.5,-534 509.5,-540 503.5,-540"/>
<text text-anchor="middle" x="423" y="-519.5" font-family="sans" font-size="10.00">PQA_extract_transcripts_as_bed12</text>
</g>
<!-- 14&#45;&gt;19 -->
<g id="edge26" class="edge"><title>14&#45;&gt;19</title>
<path fill="none" stroke="grey" stroke-width="2" d="M593.341,-719.772C598.513,-687.704 604.65,-618.283 571,-576 559.133,-561.088 542.728,-550.368 525.144,-542.662"/>
<polygon fill="grey" stroke="grey" stroke-width="2" points="526.442,-539.412 515.859,-538.901 523.814,-545.899 526.442,-539.412"/>
</g>
<!-- 15&#45;&gt;11 -->
<g id="edge16" class="edge"><title>15&#45;&gt;11</title>
<path fill="none" stroke="grey" stroke-width="2" d="M627.518,-503.871C626.836,-479.67 625.583,-435.211 624.772,-406.393"/>
<polygon fill="grey" stroke="grey" stroke-width="2" points="628.264,-406.087 624.484,-396.189 621.267,-406.284 628.264,-406.087"/>
</g>
<!-- 16&#45;&gt;11 -->
<g id="edge17" class="edge"><title>16&#45;&gt;11</title>
<path fill="none" stroke="grey" stroke-width="2" d="M431.811,-431.966C468.072,-421.972 514.06,-409.298 551.959,-398.854"/>
<polygon fill="grey" stroke="grey" stroke-width="2" points="553.202,-402.142 561.912,-396.111 551.342,-395.394 553.202,-402.142"/>
</g>
<!-- 17 -->
<g id="node18" class="node"><title>17</title>
<path fill="none" stroke="#bed856" stroke-width="2" d="M510.5,-324C510.5,-324 389.5,-324 389.5,-324 383.5,-324 377.5,-318 377.5,-312 377.5,-312 377.5,-300 377.5,-300 377.5,-294 383.5,-288 389.5,-288 389.5,-288 510.5,-288 510.5,-288 516.5,-288 522.5,-294 522.5,-300 522.5,-300 522.5,-312 522.5,-312 522.5,-318 516.5,-324 510.5,-324"/>
<text text-anchor="middle" x="450" y="-303.5" font-family="sans" font-size="10.00">PQA_calculate_TIN_scores</text>
</g>
<!-- 16&#45;&gt;17 -->
<g id="edge23" class="edge"><title>16&#45;&gt;17</title>
<path fill="none" stroke="grey" stroke-width="2" d="M401.711,-431.827C415.087,-422.925 429.501,-410.796 438,-396 448.711,-377.352 451.364,-352.963 451.532,-334.432"/>
<polygon fill="grey" stroke="grey" stroke-width="2" points="455.03,-334.235 451.386,-324.286 448.03,-334.336 455.03,-334.235"/>
</g>
<!-- 18 -->
<g id="node19" class="node"><title>18</title>
<path fill="none" stroke="#d85656" stroke-width="2" d="M417.5,-396C417.5,-396 262.5,-396 262.5,-396 256.5,-396 250.5,-390 250.5,-384 250.5,-384 250.5,-372 250.5,-372 250.5,-366 256.5,-360 262.5,-360 262.5,-360 417.5,-360 417.5,-360 423.5,-360 429.5,-366 429.5,-372 429.5,-372 429.5,-384 429.5,-384 429.5,-390 423.5,-396 417.5,-396"/>
<text text-anchor="middle" x="340" y="-375.5" font-family="sans" font-size="10.00">PQA_index_sorted_aligned_reads</text>
</g>
<!-- 16&#45;&gt;18 -->
<g id="edge25" class="edge"><title>16&#45;&gt;18</title>
<path fill="none" stroke="grey" stroke-width="2" d="M362.584,-431.697C359.206,-423.813 355.13,-414.304 351.377,-405.546"/>
<polygon fill="grey" stroke="grey" stroke-width="2" points="354.487,-403.917 347.33,-396.104 348.053,-406.675 354.487,-403.917"/>
</g>
<!-- 17&#45;&gt;12 -->
<g id="edge18" class="edge"><title>17&#45;&gt;12</title>
<path fill="none" stroke="grey" stroke-width="2" d="M448.022,-287.697C447.141,-279.983 446.081,-270.712 445.099,-262.112"/>
<polygon fill="grey" stroke="grey" stroke-width="2" points="448.568,-261.642 443.955,-252.104 441.613,-262.437 448.568,-261.642"/>
</g>
<!-- 18&#45;&gt;17 -->
<g id="edge22" class="edge"><title>18&#45;&gt;17</title>
<path fill="none" stroke="grey" stroke-width="2" d="M366.909,-359.876C381.158,-350.808 398.846,-339.552 414.236,-329.759"/>
<polygon fill="grey" stroke="grey" stroke-width="2" points="416.43,-332.511 422.988,-324.19 412.672,-326.606 416.43,-332.511"/>
</g>
<!-- 19&#45;&gt;17 -->
<g id="edge24" class="edge"><title>19&#45;&gt;17</title>
<path fill="none" stroke="grey" stroke-width="2" d="M431.771,-503.735C436.612,-493.563 442.362,-480.313 446,-468 459.685,-421.684 461.614,-408.16 458,-360 457.363,-351.518 456.162,-342.336 454.879,-334.036"/>
<polygon fill="grey" stroke="grey" stroke-width="2" points="458.324,-333.412 453.248,-324.112 451.416,-334.547 458.324,-333.412"/>
</g>
</g>
</svg>
