<?xml version="1.0" encoding="UTF-8" standalone="no"?>
<!DOCTYPE svg PUBLIC "-//W3C//DTD SVG 1.1//EN"
 "http://www.w3.org/Graphics/SVG/1.1/DTD/svg11.dtd">
<!-- Generated by graphviz version 2.38.0 (20140413.2041)
 -->
<!-- Title: snakemake_dag Pages: 1 -->
<svg width="218pt" height="404pt"
 viewBox="0.00 0.00 218.00 404.00" xmlns="http://www.w3.org/2000/svg" xmlns:xlink="http://www.w3.org/1999/xlink">
<g id="graph0" class="graph" transform="scale(1 1) rotate(0) translate(4 400)">
<title>snakemake_dag</title>
<polygon fill="white" stroke="none" points="-4,4 -4,-400 214,-400 214,4 -4,4"/>
<!-- 0 -->
<g id="node1" class="node"><title>0</title>
<path fill="none" stroke="#56a9d8" stroke-width="2" d="M115,-36C115,-36 85,-36 85,-36 79,-36 73,-30 73,-24 73,-24 73,-12 73,-12 73,-6 79,-0 85,-0 85,-0 115,-0 115,-0 121,-0 127,-6 127,-12 127,-12 127,-24 127,-24 127,-30 121,-36 115,-36"/>
<text text-anchor="middle" x="100" y="-15.5" font-family="sans" font-size="10.00">RES_all</text>
</g>
<!-- 1 -->
<g id="node2" class="node"><title>1</title>
<path fill="none" stroke="#d8ac56" stroke-width="2" d="M166.5,-108C166.5,-108 33.5,-108 33.5,-108 27.5,-108 21.5,-102 21.5,-96 21.5,-96 21.5,-84 21.5,-84 21.5,-78 27.5,-72 33.5,-72 33.5,-72 166.5,-72 166.5,-72 172.5,-72 178.5,-78 178.5,-84 178.5,-84 178.5,-96 178.5,-96 178.5,-102 172.5,-108 166.5,-108"/>
<text text-anchor="middle" x="100" y="-87.5" font-family="sans" font-size="10.00">RES_plot_Zscores_heatmaps</text>
</g>
<!-- 1&#45;&gt;0 -->
<g id="edge1" class="edge"><title>1&#45;&gt;0</title>
<path fill="none" stroke="grey" stroke-width="2" d="M100,-71.6966C100,-63.9827 100,-54.7125 100,-46.1124"/>
<polygon fill="grey" stroke="grey" stroke-width="2" points="103.5,-46.1043 100,-36.1043 96.5001,-46.1044 103.5,-46.1043"/>
</g>
<!-- 2 -->
<g id="node3" class="node"><title>2</title>
<path fill="none" stroke="#d85656" stroke-width="2" d="M166.5,-180C166.5,-180 33.5,-180 33.5,-180 27.5,-180 21.5,-174 21.5,-168 21.5,-168 21.5,-156 21.5,-156 21.5,-150 27.5,-144 33.5,-144 33.5,-144 166.5,-144 166.5,-144 172.5,-144 178.5,-150 178.5,-156 178.5,-156 178.5,-168 178.5,-168 178.5,-174 172.5,-180 166.5,-180"/>
<text text-anchor="middle" x="100" y="-159.5" font-family="sans" font-size="10.00">RES_prepare_Zscores_tables</text>
</g>
<!-- 2&#45;&gt;1 -->
<g id="edge2" class="edge"><title>2&#45;&gt;1</title>
<path fill="none" stroke="grey" stroke-width="2" d="M100,-143.697C100,-135.983 100,-126.712 100,-118.112"/>
<polygon fill="grey" stroke="grey" stroke-width="2" points="103.5,-118.104 100,-108.104 96.5001,-118.104 103.5,-118.104"/>
</g>
<!-- 3 -->
<g id="node4" class="node"><title>3</title>
<path fill="none" stroke="#59d856" stroke-width="2" d="M188,-324C188,-324 12,-324 12,-324 6,-324 0,-318 0,-312 0,-312 0,-300 0,-300 0,-294 6,-288 12,-288 12,-288 188,-288 188,-288 194,-288 200,-294 200,-300 200,-300 200,-312 200,-312 200,-318 194,-324 188,-324"/>
<text text-anchor="middle" x="100" y="-303.5" font-family="sans" font-size="10.00">RES_annotate_statistical_significance</text>
</g>
<!-- 3&#45;&gt;2 -->
<g id="edge3" class="edge"><title>3&#45;&gt;2</title>
<path fill="none" stroke="grey" stroke-width="2" d="M88.5331,-287.667C82.6252,-277.689 76.037,-264.652 73,-252 69.2654,-236.442 69.2654,-231.558 73,-216 75.2066,-206.807 79.2878,-197.412 83.6207,-189.134"/>
<polygon fill="grey" stroke="grey" stroke-width="2" points="86.7153,-190.771 88.5331,-180.333 80.603,-187.359 86.7153,-190.771"/>
</g>
<!-- 4 -->
<g id="node5" class="node"><title>4</title>
<path fill="none" stroke="#56d8a9" stroke-width="2" d="M198,-252C198,-252 94,-252 94,-252 88,-252 82,-246 82,-240 82,-240 82,-228 82,-228 82,-222 88,-216 94,-216 94,-216 198,-216 198,-216 204,-216 210,-222 210,-228 210,-228 210,-240 210,-240 210,-246 204,-252 198,-252"/>
<text text-anchor="middle" x="146" y="-231.5" font-family="sans" font-size="10.00">RES_select_top_motifs</text>
</g>
<!-- 3&#45;&gt;4 -->
<g id="edge6" class="edge"><title>3&#45;&gt;4</title>
<path fill="none" stroke="grey" stroke-width="2" d="M111.371,-287.697C116.718,-279.559 123.204,-269.689 129.111,-260.701"/>
<polygon fill="grey" stroke="grey" stroke-width="2" points="132.193,-262.384 134.76,-252.104 126.343,-258.539 132.193,-262.384"/>
</g>
<!-- 4&#45;&gt;2 -->
<g id="edge4" class="edge"><title>4&#45;&gt;2</title>
<path fill="none" stroke="grey" stroke-width="2" d="M134.629,-215.697C129.282,-207.559 122.796,-197.689 116.889,-188.701"/>
<polygon fill="grey" stroke="grey" stroke-width="2" points="119.657,-186.539 111.24,-180.104 113.807,-190.384 119.657,-186.539"/>
</g>
<!-- 5 -->
<g id="node6" class="node"><title>5</title>
<path fill="none" stroke="#afd856" stroke-width="2" d="M140.5,-396C140.5,-396 59.5,-396 59.5,-396 53.5,-396 47.5,-390 47.5,-384 47.5,-384 47.5,-372 47.5,-372 47.5,-366 53.5,-360 59.5,-360 59.5,-360 140.5,-360 140.5,-360 146.5,-360 152.5,-366 152.5,-372 152.5,-372 152.5,-384 152.5,-384 152.5,-390 146.5,-396 140.5,-396"/>
<text text-anchor="middle" x="100" y="-375.5" font-family="sans" font-size="10.00">RES_create_outdir</text>
</g>
<!-- 5&#45;&gt;3 -->
<g id="edge5" class="edge"><title>5&#45;&gt;3</title>
<path fill="none" stroke="grey" stroke-width="2" d="M100,-359.697C100,-351.983 100,-342.712 100,-334.112"/>
<polygon fill="grey" stroke="grey" stroke-width="2" points="103.5,-334.104 100,-324.104 96.5001,-334.104 103.5,-334.104"/>
</g>
</g>
</svg>
