<?xml version="1.0" encoding="UTF-8" standalone="no"?>
<!DOCTYPE svg PUBLIC "-//W3C//DTD SVG 1.1//EN"
 "http://www.w3.org/Graphics/SVG/1.1/DTD/svg11.dtd">
<!-- Generated by graphviz version 2.38.0 (20140413.2041)
 -->
<!-- Title: snakemake_dag Pages: 1 -->
<svg width="336pt" height="548pt"
 viewBox="0.00 0.00 336.00 548.00" xmlns="http://www.w3.org/2000/svg" xmlns:xlink="http://www.w3.org/1999/xlink">
<g id="graph0" class="graph" transform="scale(1 1) rotate(0) translate(4 544)">
<title>snakemake_dag</title>
<polygon fill="white" stroke="none" points="-4,4 -4,-544 332,-544 332,4 -4,4"/>
<!-- 0 -->
<g id="node1" class="node"><title>0</title>
<path fill="none" stroke="#5692d8" stroke-width="2" d="M190.5,-36C190.5,-36 160.5,-36 160.5,-36 154.5,-36 148.5,-30 148.5,-24 148.5,-24 148.5,-12 148.5,-12 148.5,-6 154.5,-0 160.5,-0 160.5,-0 190.5,-0 190.5,-0 196.5,-0 202.5,-6 202.5,-12 202.5,-12 202.5,-24 202.5,-24 202.5,-30 196.5,-36 190.5,-36"/>
<text text-anchor="middle" x="175.5" y="-15.5" font-family="sans" font-size="10.00">ASE_all</text>
</g>
<!-- 1 -->
<g id="node2" class="node"><title>1</title>
<path fill="none" stroke="#56d8a9" stroke-width="2" d="M256,-108C256,-108 95,-108 95,-108 89,-108 83,-102 83,-96 83,-96 83,-84 83,-84 83,-78 89,-72 95,-72 95,-72 256,-72 256,-72 262,-72 268,-78 268,-84 268,-84 268,-96 268,-96 268,-102 262,-108 256,-108"/>
<text text-anchor="middle" x="175.5" y="-87.5" font-family="sans" font-size="10.00">ASE_extract_splice_sites_coordinates</text>
</g>
<!-- 1&#45;&gt;0 -->
<g id="edge1" class="edge"><title>1&#45;&gt;0</title>
<path fill="none" stroke="grey" stroke-width="2" d="M175.5,-71.6966C175.5,-63.9827 175.5,-54.7125 175.5,-46.1124"/>
<polygon fill="grey" stroke="grey" stroke-width="2" points="179,-46.1043 175.5,-36.1043 172,-46.1044 179,-46.1043"/>
</g>
<!-- 2 -->
<g id="node3" class="node"><title>2</title>
<path fill="none" stroke="#70d856" stroke-width="2" d="M236.5,-180C236.5,-180 114.5,-180 114.5,-180 108.5,-180 102.5,-174 102.5,-168 102.5,-168 102.5,-156 102.5,-156 102.5,-150 108.5,-144 114.5,-144 114.5,-144 236.5,-144 236.5,-144 242.5,-144 248.5,-150 248.5,-156 248.5,-156 248.5,-168 248.5,-168 248.5,-174 242.5,-180 236.5,-180"/>
<text text-anchor="middle" x="175.5" y="-159.5" font-family="sans" font-size="10.00">ASE_format_events_into_bed</text>
</g>
<!-- 2&#45;&gt;1 -->
<g id="edge2" class="edge"><title>2&#45;&gt;1</title>
<path fill="none" stroke="grey" stroke-width="2" d="M175.5,-143.697C175.5,-135.983 175.5,-126.712 175.5,-118.112"/>
<polygon fill="grey" stroke="grey" stroke-width="2" points="179,-118.104 175.5,-108.104 172,-118.104 179,-118.104"/>
</g>
<!-- 3 -->
<g id="node4" class="node"><title>3</title>
<path fill="none" stroke="#afd856" stroke-width="2" d="M248.5,-252C248.5,-252 102.5,-252 102.5,-252 96.5,-252 90.5,-246 90.5,-240 90.5,-240 90.5,-228 90.5,-228 90.5,-222 96.5,-216 102.5,-216 102.5,-216 248.5,-216 248.5,-216 254.5,-216 260.5,-222 260.5,-228 260.5,-228 260.5,-240 260.5,-240 260.5,-246 254.5,-252 248.5,-252"/>
<text text-anchor="middle" x="175.5" y="-231.5" font-family="sans" font-size="10.00">ASE_select_representative_events</text>
</g>
<!-- 3&#45;&gt;2 -->
<g id="edge3" class="edge"><title>3&#45;&gt;2</title>
<path fill="none" stroke="grey" stroke-width="2" d="M175.5,-215.697C175.5,-207.983 175.5,-198.712 175.5,-190.112"/>
<polygon fill="grey" stroke="grey" stroke-width="2" points="179,-190.104 175.5,-180.104 172,-190.104 179,-190.104"/>
</g>
<!-- 4 -->
<g id="node5" class="node"><title>4</title>
<path fill="none" stroke="#d8cb56" stroke-width="2" d="M216.5,-324C216.5,-324 134.5,-324 134.5,-324 128.5,-324 122.5,-318 122.5,-312 122.5,-312 122.5,-300 122.5,-300 122.5,-294 128.5,-288 134.5,-288 134.5,-288 216.5,-288 216.5,-288 222.5,-288 228.5,-294 228.5,-300 228.5,-300 228.5,-312 228.5,-312 228.5,-318 222.5,-324 216.5,-324"/>
<text text-anchor="middle" x="175.5" y="-303.5" font-family="sans" font-size="10.00">ASE_cluster_events</text>
</g>
<!-- 4&#45;&gt;3 -->
<g id="edge4" class="edge"><title>4&#45;&gt;3</title>
<path fill="none" stroke="grey" stroke-width="2" d="M175.5,-287.697C175.5,-279.983 175.5,-270.712 175.5,-262.112"/>
<polygon fill="grey" stroke="grey" stroke-width="2" points="179,-262.104 175.5,-252.104 172,-262.104 179,-262.104"/>
</g>
<!-- 5 -->
<g id="node6" class="node"><title>5</title>
<path fill="none" stroke="#56c9d8" stroke-width="2" d="M211,-396C211,-396 140,-396 140,-396 134,-396 128,-390 128,-384 128,-384 128,-372 128,-372 128,-366 134,-360 140,-360 140,-360 211,-360 211,-360 217,-360 223,-366 223,-372 223,-372 223,-384 223,-384 223,-390 217,-396 211,-396"/>
<text text-anchor="middle" x="175.5" y="-375.5" font-family="sans" font-size="10.00">ASE_filter_events</text>
</g>
<!-- 5&#45;&gt;4 -->
<g id="edge5" class="edge"><title>5&#45;&gt;4</title>
<path fill="none" stroke="grey" stroke-width="2" d="M175.5,-359.697C175.5,-351.983 175.5,-342.712 175.5,-334.112"/>
<polygon fill="grey" stroke="grey" stroke-width="2" points="179,-334.104 175.5,-324.104 172,-334.104 179,-334.104"/>
</g>
<!-- 6 -->
<g id="node7" class="node"><title>6</title>
<path fill="none" stroke="#d85656" stroke-width="2" d="M167,-468C167,-468 12,-468 12,-468 6,-468 0,-462 0,-456 0,-456 0,-444 0,-444 0,-438 6,-432 12,-432 12,-432 167,-432 167,-432 173,-432 179,-438 179,-444 179,-444 179,-456 179,-456 179,-462 173,-468 167,-468"/>
<text text-anchor="middle" x="89.5" y="-447.5" font-family="sans" font-size="10.00">ASE_generate_skipped_exon_events</text>
</g>
<!-- 6&#45;&gt;5 -->
<g id="edge6" class="edge"><title>6&#45;&gt;5</title>
<path fill="none" stroke="grey" stroke-width="2" d="M110.758,-431.697C121.589,-422.881 134.918,-412.032 146.66,-402.474"/>
<polygon fill="grey" stroke="grey" stroke-width="2" points="148.94,-405.132 154.486,-396.104 144.521,-399.703 148.94,-405.132"/>
</g>
<!-- 7 -->
<g id="node8" class="node"><title>7</title>
<path fill="none" stroke="#56d873" stroke-width="2" d="M316,-468C316,-468 209,-468 209,-468 203,-468 197,-462 197,-456 197,-456 197,-444 197,-444 197,-438 203,-432 209,-432 209,-432 316,-432 316,-432 322,-432 328,-438 328,-444 328,-444 328,-456 328,-456 328,-462 322,-468 316,-468"/>
<text text-anchor="middle" x="262.5" y="-447.5" font-family="sans" font-size="10.00">ASE_build_genome_index</text>
</g>
<!-- 7&#45;&gt;5 -->
<g id="edge7" class="edge"><title>7&#45;&gt;5</title>
<path fill="none" stroke="grey" stroke-width="2" d="M240.994,-431.697C230.037,-422.881 216.554,-412.032 204.675,-402.474"/>
<polygon fill="grey" stroke="grey" stroke-width="2" points="206.744,-399.646 196.758,-396.104 202.355,-405.1 206.744,-399.646"/>
</g>
<!-- 8 -->
<g id="node9" class="node"><title>8</title>
<path fill="none" stroke="#d88d56" stroke-width="2" d="M212.5,-540C212.5,-540 138.5,-540 138.5,-540 132.5,-540 126.5,-534 126.5,-528 126.5,-528 126.5,-516 126.5,-516 126.5,-510 132.5,-504 138.5,-504 138.5,-504 212.5,-504 212.5,-504 218.5,-504 224.5,-510 224.5,-516 224.5,-516 224.5,-528 224.5,-528 224.5,-534 218.5,-540 212.5,-540"/>
<text text-anchor="middle" x="175.5" y="-519.5" font-family="sans" font-size="10.00">ASE_create_outdir</text>
</g>
<!-- 8&#45;&gt;6 -->
<g id="edge8" class="edge"><title>8&#45;&gt;6</title>
<path fill="none" stroke="grey" stroke-width="2" d="M154.242,-503.697C143.411,-494.881 130.082,-484.032 118.34,-474.474"/>
<polygon fill="grey" stroke="grey" stroke-width="2" points="120.479,-471.703 110.514,-468.104 116.06,-477.132 120.479,-471.703"/>
</g>
<!-- 8&#45;&gt;7 -->
<g id="edge9" class="edge"><title>8&#45;&gt;7</title>
<path fill="none" stroke="grey" stroke-width="2" d="M197.006,-503.697C207.963,-494.881 221.446,-484.032 233.325,-474.474"/>
<polygon fill="grey" stroke="grey" stroke-width="2" points="235.645,-477.1 241.242,-468.104 231.256,-471.646 235.645,-477.1"/>
</g>
</g>
</svg>
