<?xml version="1.0" encoding="UTF-8" standalone="no"?>
<!DOCTYPE svg PUBLIC "-//W3C//DTD SVG 1.1//EN"
 "http://www.w3.org/Graphics/SVG/1.1/DTD/svg11.dtd">
<!-- Generated by graphviz version 2.38.0 (20140413.2041)
 -->
<!-- Title: snakemake_dag Pages: 1 -->
<svg width="253pt" height="548pt"
 viewBox="0.00 0.00 253.00 548.00" xmlns="http://www.w3.org/2000/svg" xmlns:xlink="http://www.w3.org/1999/xlink">
<g id="graph0" class="graph" transform="scale(1 1) rotate(0) translate(4 544)">
<title>snakemake_dag</title>
<polygon fill="white" stroke="none" points="-4,4 -4,-544 249,-544 249,4 -4,4"/>
<!-- 0 -->
<g id="node1" class="node"><title>0</title>
<path fill="none" stroke="#d6d856" stroke-width="2" d="M137.5,-36C137.5,-36 107.5,-36 107.5,-36 101.5,-36 95.5,-30 95.5,-24 95.5,-24 95.5,-12 95.5,-12 95.5,-6 101.5,-0 107.5,-0 107.5,-0 137.5,-0 137.5,-0 143.5,-0 149.5,-6 149.5,-12 149.5,-12 149.5,-24 149.5,-24 149.5,-30 143.5,-36 137.5,-36"/>
<text text-anchor="middle" x="122.5" y="-15.5" font-family="sans" font-size="10.00">MAE_all</text>
</g>
<!-- 1 -->
<g id="node2" class="node"><title>1</title>
<path fill="none" stroke="#56d89a" stroke-width="2" d="M198,-108C198,-108 47,-108 47,-108 41,-108 35,-102 35,-96 35,-96 35,-84 35,-84 35,-78 41,-72 47,-72 47,-72 198,-72 198,-72 204,-72 210,-78 210,-84 210,-84 210,-96 210,-96 210,-102 204,-108 198,-108"/>
<text text-anchor="middle" x="122.5" y="-87.5" font-family="sans" font-size="10.00">MAE_collapse_results_for_region</text>
</g>
<!-- 1&#45;&gt;0 -->
<g id="edge1" class="edge"><title>1&#45;&gt;0</title>
<path fill="none" stroke="grey" stroke-width="2" d="M122.5,-71.6966C122.5,-63.9827 122.5,-54.7125 122.5,-46.1124"/>
<polygon fill="grey" stroke="grey" stroke-width="2" points="126,-46.1043 122.5,-36.1043 119,-46.1044 126,-46.1043"/>
</g>
<!-- 2 -->
<g id="node3" class="node"><title>2</title>
<path fill="none" stroke="#569ad8" stroke-width="2" d="M233,-180C233,-180 12,-180 12,-180 6,-180 0,-174 0,-168 0,-168 0,-156 0,-156 0,-150 6,-144 12,-144 12,-144 233,-144 233,-144 239,-144 245,-150 245,-156 245,-156 245,-168 245,-168 245,-174 239,-180 233,-180"/>
<text text-anchor="middle" x="122.5" y="-159.5" font-family="sans" font-size="10.00">MAE_calculate_Zscores_statistical_significancy</text>
</g>
<!-- 2&#45;&gt;1 -->
<g id="edge2" class="edge"><title>2&#45;&gt;1</title>
<path fill="none" stroke="grey" stroke-width="2" d="M122.5,-143.697C122.5,-135.983 122.5,-126.712 122.5,-118.112"/>
<polygon fill="grey" stroke="grey" stroke-width="2" points="126,-118.104 122.5,-108.104 119,-118.104 126,-118.104"/>
</g>
<!-- 3 -->
<g id="node4" class="node"><title>3</title>
<path fill="none" stroke="#97d856" stroke-width="2" d="M182,-252C182,-252 63,-252 63,-252 57,-252 51,-246 51,-240 51,-240 51,-228 51,-228 51,-222 57,-216 63,-216 63,-216 182,-216 182,-216 188,-216 194,-222 194,-228 194,-228 194,-240 194,-240 194,-246 188,-252 182,-252"/>
<text text-anchor="middle" x="122.5" y="-231.5" font-family="sans" font-size="10.00">MAE_extend_result_tables</text>
</g>
<!-- 3&#45;&gt;2 -->
<g id="edge3" class="edge"><title>3&#45;&gt;2</title>
<path fill="none" stroke="grey" stroke-width="2" d="M122.5,-215.697C122.5,-207.983 122.5,-198.712 122.5,-190.112"/>
<polygon fill="grey" stroke="grey" stroke-width="2" points="126,-190.104 122.5,-180.104 119,-190.104 126,-190.104"/>
</g>
<!-- 4 -->
<g id="node5" class="node"><title>4</title>
<path fill="none" stroke="#59d856" stroke-width="2" d="M175,-324C175,-324 70,-324 70,-324 64,-324 58,-318 58,-312 58,-312 58,-300 58,-300 58,-294 64,-288 70,-288 70,-288 175,-288 175,-288 181,-288 187,-294 187,-300 187,-300 187,-312 187,-312 187,-318 181,-324 175,-324"/>
<text text-anchor="middle" x="122.5" y="-303.5" font-family="sans" font-size="10.00">MAE_calculate_Zscores</text>
</g>
<!-- 4&#45;&gt;3 -->
<g id="edge4" class="edge"><title>4&#45;&gt;3</title>
<path fill="none" stroke="grey" stroke-width="2" d="M122.5,-287.697C122.5,-279.983 122.5,-270.712 122.5,-262.112"/>
<polygon fill="grey" stroke="grey" stroke-width="2" points="126,-262.104 122.5,-252.104 119,-262.104 126,-262.104"/>
</g>
<!-- 5 -->
<g id="node6" class="node"><title>5</title>
<path fill="none" stroke="#56d8d8" stroke-width="2" d="M185,-396C185,-396 60,-396 60,-396 54,-396 48,-390 48,-384 48,-384 48,-372 48,-372 48,-366 54,-360 60,-360 60,-360 185,-360 185,-360 191,-360 197,-366 197,-372 197,-372 197,-384 197,-384 197,-390 191,-396 185,-396"/>
<text text-anchor="middle" x="122.5" y="-375.5" font-family="sans" font-size="10.00">MAE_fit_model_parameters</text>
</g>
<!-- 5&#45;&gt;4 -->
<g id="edge5" class="edge"><title>5&#45;&gt;4</title>
<path fill="none" stroke="grey" stroke-width="2" d="M122.5,-359.697C122.5,-351.983 122.5,-342.712 122.5,-334.112"/>
<polygon fill="grey" stroke="grey" stroke-width="2" points="126,-334.104 122.5,-324.104 119,-334.104 126,-334.104"/>
</g>
<!-- 6 -->
<g id="node7" class="node"><title>6</title>
<path fill="none" stroke="#d85656" stroke-width="2" d="M189.5,-468C189.5,-468 55.5,-468 55.5,-468 49.5,-468 43.5,-462 43.5,-456 43.5,-456 43.5,-444 43.5,-444 43.5,-438 49.5,-432 55.5,-432 55.5,-432 189.5,-432 189.5,-432 195.5,-432 201.5,-438 201.5,-444 201.5,-444 201.5,-456 201.5,-456 201.5,-462 195.5,-468 189.5,-468"/>
<text text-anchor="middle" x="122.5" y="-447.5" font-family="sans" font-size="10.00">MAE_prepare_inclusion_table</text>
</g>
<!-- 6&#45;&gt;5 -->
<g id="edge6" class="edge"><title>6&#45;&gt;5</title>
<path fill="none" stroke="grey" stroke-width="2" d="M122.5,-431.697C122.5,-423.983 122.5,-414.712 122.5,-406.112"/>
<polygon fill="grey" stroke="grey" stroke-width="2" points="126,-406.104 122.5,-396.104 119,-406.104 126,-406.104"/>
</g>
<!-- 7 -->
<g id="node8" class="node"><title>7</title>
<path fill="none" stroke="#d89556" stroke-width="2" d="M163.5,-540C163.5,-540 81.5,-540 81.5,-540 75.5,-540 69.5,-534 69.5,-528 69.5,-528 69.5,-516 69.5,-516 69.5,-510 75.5,-504 81.5,-504 81.5,-504 163.5,-504 163.5,-504 169.5,-504 175.5,-510 175.5,-516 175.5,-516 175.5,-528 175.5,-528 175.5,-534 169.5,-540 163.5,-540"/>
<text text-anchor="middle" x="122.5" y="-519.5" font-family="sans" font-size="10.00">MAE_create_outdir</text>
</g>
<!-- 7&#45;&gt;6 -->
<g id="edge7" class="edge"><title>7&#45;&gt;6</title>
<path fill="none" stroke="grey" stroke-width="2" d="M122.5,-503.697C122.5,-495.983 122.5,-486.712 122.5,-478.112"/>
<polygon fill="grey" stroke="grey" stroke-width="2" points="126,-478.104 122.5,-468.104 119,-478.104 126,-478.104"/>
</g>
</g>
</svg>
