<?xml version="1.0" encoding="UTF-8" standalone="no"?>
<!DOCTYPE svg PUBLIC "-//W3C//DTD SVG 1.1//EN"
 "http://www.w3.org/Graphics/SVG/1.1/DTD/svg11.dtd">
<!-- Generated by graphviz version 2.40.1 (20161225.0304)
 -->
<!-- Title: snakemake_dag Pages: 1 -->
<svg width="382pt" height="476pt"
 viewBox="0.00 0.00 381.50 476.00" xmlns="http://www.w3.org/2000/svg" xmlns:xlink="http://www.w3.org/1999/xlink">
<g id="graph0" class="graph" transform="scale(1 1) rotate(0) translate(4 472)">
<title>snakemake_dag</title>
<polygon fill="#ffffff" stroke="transparent" points="-4,4 -4,-472 377.5,-472 377.5,4 -4,4"/>
<!-- 0 -->
<g id="node1" class="node">
<title>0</title>
<path fill="none" stroke="#d85656" stroke-width="2" d="M252,-36C252,-36 222,-36 222,-36 216,-36 210,-30 210,-24 210,-24 210,-12 210,-12 210,-6 216,0 222,0 222,0 252,0 252,0 258,0 264,-6 264,-12 264,-12 264,-24 264,-24 264,-30 258,-36 252,-36"/>
<text text-anchor="middle" x="237" y="-15.5" font-family="sans" font-size="10.00" fill="#000000">CSM_all</text>
</g>
<!-- 1 -->
<g id="node2" class="node">
<title>1</title>
<path fill="none" stroke="#56d873" stroke-width="2" d="M301.5,-108C301.5,-108 172.5,-108 172.5,-108 166.5,-108 160.5,-102 160.5,-96 160.5,-96 160.5,-84 160.5,-84 160.5,-78 166.5,-72 172.5,-72 172.5,-72 301.5,-72 301.5,-72 307.5,-72 313.5,-78 313.5,-84 313.5,-84 313.5,-96 313.5,-96 313.5,-102 307.5,-108 301.5,-108"/>
<text text-anchor="middle" x="237" y="-87.5" font-family="sans" font-size="10.00" fill="#000000">CSM_create_links_to_matrices</text>
</g>
<!-- 1&#45;&gt;0 -->
<g id="edge1" class="edge">
<title>1&#45;&gt;0</title>
<path fill="none" stroke="#c0c0c0" stroke-width="2" d="M237,-71.8314C237,-64.131 237,-54.9743 237,-46.4166"/>
<polygon fill="#c0c0c0" stroke="#c0c0c0" stroke-width="2" points="240.5001,-46.4132 237,-36.4133 233.5001,-46.4133 240.5001,-46.4132"/>
</g>
<!-- 2 -->
<g id="node3" class="node">
<title>2</title>
<path fill="none" stroke="#d88d56" stroke-width="2" d="M324,-180C324,-180 150,-180 150,-180 144,-180 138,-174 138,-168 138,-168 138,-156 138,-156 138,-150 144,-144 150,-144 150,-144 324,-144 324,-144 330,-144 336,-150 336,-156 336,-156 336,-168 336,-168 336,-174 330,-180 324,-180"/>
<text text-anchor="middle" x="237" y="-159.5" font-family="sans" font-size="10.00" fill="#000000">CSM_create_MotEvo_sitecount_matrices</text>
</g>
<!-- 2&#45;&gt;1 -->
<g id="edge2" class="edge">
<title>2&#45;&gt;1</title>
<path fill="none" stroke="#c0c0c0" stroke-width="2" d="M237,-143.8314C237,-136.131 237,-126.9743 237,-118.4166"/>
<polygon fill="#c0c0c0" stroke="#c0c0c0" stroke-width="2" points="240.5001,-118.4132 237,-108.4133 233.5001,-118.4133 240.5001,-118.4132"/>
</g>
<!-- 3 -->
<g id="node4" class="node">
<title>3</title>
<path fill="none" stroke="#70d856" stroke-width="2" d="M240.5,-252C240.5,-252 145.5,-252 145.5,-252 139.5,-252 133.5,-246 133.5,-240 133.5,-240 133.5,-228 133.5,-228 133.5,-222 139.5,-216 145.5,-216 145.5,-216 240.5,-216 240.5,-216 246.5,-216 252.5,-222 252.5,-228 252.5,-228 252.5,-240 252.5,-240 252.5,-246 246.5,-252 240.5,-252"/>
<text text-anchor="middle" x="193" y="-231.5" font-family="sans" font-size="10.00" fill="#000000">CSM_MotEvo_analysis</text>
</g>
<!-- 3&#45;&gt;2 -->
<g id="edge3" class="edge">
<title>3&#45;&gt;2</title>
<path fill="none" stroke="#c0c0c0" stroke-width="2" d="M204.1031,-215.8314C209.0674,-207.7079 215.0222,-197.9637 220.4928,-189.0118"/>
<polygon fill="#c0c0c0" stroke="#c0c0c0" stroke-width="2" points="223.5194,-190.7712 225.7474,-180.4133 217.5464,-187.121 223.5194,-190.7712"/>
</g>
<!-- 4 -->
<g id="node5" class="node">
<title>4</title>
<path fill="none" stroke="#56d8a9" stroke-width="2" d="M361.5,-324C361.5,-324 200.5,-324 200.5,-324 194.5,-324 188.5,-318 188.5,-312 188.5,-312 188.5,-300 188.5,-300 188.5,-294 194.5,-288 200.5,-288 200.5,-288 361.5,-288 361.5,-288 367.5,-288 373.5,-294 373.5,-300 373.5,-300 373.5,-312 373.5,-312 373.5,-318 367.5,-324 361.5,-324"/>
<text text-anchor="middle" x="281" y="-303.5" font-family="sans" font-size="10.00" fill="#000000">CSM_prepare_sequences_for_MotEvo</text>
</g>
<!-- 4&#45;&gt;2 -->
<g id="edge4" class="edge">
<title>4&#45;&gt;2</title>
<path fill="none" stroke="#c0c0c0" stroke-width="2" d="M278.3875,-287.7528C275.4649,-269.3418 270.0574,-240.2473 262,-216 259.0176,-207.0249 254.9712,-197.5633 251.0032,-189.1109"/>
<polygon fill="#c0c0c0" stroke="#c0c0c0" stroke-width="2" points="254.1332,-187.5439 246.6174,-180.0763 247.8359,-190.6009 254.1332,-187.5439"/>
</g>
<!-- 4&#45;&gt;3 -->
<g id="edge6" class="edge">
<title>4&#45;&gt;3</title>
<path fill="none" stroke="#c0c0c0" stroke-width="2" d="M258.7939,-287.8314C247.955,-278.9632 234.7556,-268.1637 223.0322,-258.5718"/>
<polygon fill="#c0c0c0" stroke="#c0c0c0" stroke-width="2" points="225.155,-255.7864 215.199,-252.1628 220.7223,-261.2041 225.155,-255.7864"/>
</g>
<!-- 5 -->
<g id="node6" class="node">
<title>5</title>
<path fill="none" stroke="#5692d8" stroke-width="2" d="M158,-324C158,-324 12,-324 12,-324 6,-324 0,-318 0,-312 0,-312 0,-300 0,-300 0,-294 6,-288 12,-288 12,-288 158,-288 158,-288 164,-288 170,-294 170,-300 170,-300 170,-312 170,-312 170,-318 164,-324 158,-324"/>
<text text-anchor="middle" x="85" y="-303.5" font-family="sans" font-size="10.00" fill="#000000">CSM_prepare_MotEvo_parameters</text>
</g>
<!-- 5&#45;&gt;3 -->
<g id="edge5" class="edge">
<title>5&#45;&gt;3</title>
<path fill="none" stroke="#c0c0c0" stroke-width="2" d="M112.253,-287.8314C125.9389,-278.7074 142.6915,-267.539 157.3827,-257.7449"/>
<polygon fill="#c0c0c0" stroke="#c0c0c0" stroke-width="2" points="159.3767,-260.6221 165.7558,-252.1628 155.4938,-254.7977 159.3767,-260.6221"/>
</g>
<!-- 6 -->
<g id="node7" class="node">
<title>6</title>
<path fill="none" stroke="#56c9d8" stroke-width="2" d="M358,-396C358,-396 172,-396 172,-396 166,-396 160,-390 160,-384 160,-384 160,-372 160,-372 160,-366 166,-360 172,-360 172,-360 358,-360 358,-360 364,-360 370,-366 370,-372 370,-372 370,-384 370,-384 370,-390 364,-396 358,-396"/>
<text text-anchor="middle" x="265" y="-375.5" font-family="sans" font-size="10.00" fill="#000000">CSM_extract_window_coord_and_sequence</text>
</g>
<!-- 6&#45;&gt;4 -->
<g id="edge7" class="edge">
<title>6&#45;&gt;4</title>
<path fill="none" stroke="#c0c0c0" stroke-width="2" d="M269.0375,-359.8314C270.7487,-352.131 272.7835,-342.9743 274.6852,-334.4166"/>
<polygon fill="#c0c0c0" stroke="#c0c0c0" stroke-width="2" points="278.1554,-334.9344 276.9082,-324.4133 271.3221,-333.4159 278.1554,-334.9344"/>
</g>
<!-- 7 -->
<g id="node8" class="node">
<title>7</title>
<path fill="none" stroke="#afd856" stroke-width="2" d="M220.5,-468C220.5,-468 143.5,-468 143.5,-468 137.5,-468 131.5,-462 131.5,-456 131.5,-456 131.5,-444 131.5,-444 131.5,-438 137.5,-432 143.5,-432 143.5,-432 220.5,-432 220.5,-432 226.5,-432 232.5,-438 232.5,-444 232.5,-444 232.5,-456 232.5,-456 232.5,-462 226.5,-468 220.5,-468"/>
<text text-anchor="middle" x="182" y="-447.5" font-family="sans" font-size="10.00" fill="#000000">CSM_create_outdir</text>
</g>
<!-- 7&#45;&gt;5 -->
<g id="edge8" class="edge">
<title>7&#45;&gt;5</title>
<path fill="none" stroke="#c0c0c0" stroke-width="2" d="M169.7149,-431.7623C152.8057,-406.66 122.2518,-361.3017 102.8285,-332.4671"/>
<polygon fill="#c0c0c0" stroke="#c0c0c0" stroke-width="2" points="105.6751,-330.4281 97.1854,-324.0896 99.8694,-334.3389 105.6751,-330.4281"/>
</g>
<!-- 7&#45;&gt;6 -->
<g id="edge9" class="edge">
<title>7&#45;&gt;6</title>
<path fill="none" stroke="#c0c0c0" stroke-width="2" d="M202.9444,-431.8314C213.0691,-423.0485 225.3777,-412.3712 236.3548,-402.8489"/>
<polygon fill="#c0c0c0" stroke="#c0c0c0" stroke-width="2" points="238.8019,-405.3595 244.0623,-396.1628 234.2149,-400.0718 238.8019,-405.3595"/>
</g>
</g>
</svg>
