<?xml version="1.0" encoding="UTF-8" standalone="no"?>
<!DOCTYPE svg PUBLIC "-//W3C//DTD SVG 1.1//EN"
 "http://www.w3.org/Graphics/SVG/1.1/DTD/svg11.dtd">
<!-- Generated by graphviz version 2.47.2 (20210527.1257)
 -->
<!-- Title: snakemake_dag Pages: 1 -->
<svg width="326pt" height="404pt"
 viewBox="0.00 0.00 326.00 404.00" xmlns="http://www.w3.org/2000/svg" xmlns:xlink="http://www.w3.org/1999/xlink">
<g id="graph0" class="graph" transform="scale(1 1) rotate(0) translate(4 400)">
<title>snakemake_dag</title>
<polygon fill="white" stroke="transparent" points="-4,4 -4,-400 322,-400 322,4 -4,4"/>
<!-- 0 -->
<g id="node1" class="node">
<title>0</title>
<path fill="none" stroke="#d85656" stroke-width="2" d="M173.5,-36C173.5,-36 143.5,-36 143.5,-36 137.5,-36 131.5,-30 131.5,-24 131.5,-24 131.5,-12 131.5,-12 131.5,-6 137.5,0 143.5,0 143.5,0 173.5,0 173.5,0 179.5,0 185.5,-6 185.5,-12 185.5,-12 185.5,-24 185.5,-24 185.5,-30 179.5,-36 173.5,-36"/>
<text text-anchor="middle" x="158.5" y="-15.5" font-family="sans" font-size="10.00">PAQ_all</text>
</g>
<!-- 1 -->
<g id="node2" class="node">
<title>1</title>
<path fill="none" stroke="#78d856" stroke-width="2" d="M216.5,-108C216.5,-108 100.5,-108 100.5,-108 94.5,-108 88.5,-102 88.5,-96 88.5,-96 88.5,-84 88.5,-84 88.5,-78 94.5,-72 100.5,-72 100.5,-72 216.5,-72 216.5,-72 222.5,-72 228.5,-78 228.5,-84 228.5,-84 228.5,-96 228.5,-96 228.5,-102 222.5,-108 216.5,-108"/>
<text text-anchor="middle" x="158.5" y="-87.5" font-family="sans" font-size="10.00">PAQ_filter_on_expression</text>
</g>
<!-- 1&#45;&gt;0 -->
<g id="edge1" class="edge">
<title>1&#45;&gt;0</title>
<path fill="none" stroke="grey" stroke-width="2" d="M158.5,-71.7C158.5,-63.98 158.5,-54.71 158.5,-46.11"/>
<polygon fill="grey" stroke="grey" stroke-width="2" points="162,-46.1 158.5,-36.1 155,-46.1 162,-46.1"/>
</g>
<!-- 2 -->
<g id="node3" class="node">
<title>2</title>
<path fill="none" stroke="#d8a456" stroke-width="2" d="M137,-180C137,-180 12,-180 12,-180 6,-180 0,-174 0,-168 0,-168 0,-156 0,-156 0,-150 6,-144 12,-144 12,-144 137,-144 137,-144 143,-144 149,-150 149,-156 149,-156 149,-168 149,-168 149,-174 143,-180 137,-180"/>
<text text-anchor="middle" x="74.5" y="-159.5" font-family="sans" font-size="10.00">PAQ_normalize_expression</text>
</g>
<!-- 2&#45;&gt;1 -->
<g id="edge3" class="edge">
<title>2&#45;&gt;1</title>
<path fill="none" stroke="grey" stroke-width="2" d="M95.26,-143.7C105.74,-134.97 118.61,-124.24 130,-114.75"/>
<polygon fill="grey" stroke="grey" stroke-width="2" points="132.53,-117.19 137.97,-108.1 128.05,-111.82 132.53,-117.19"/>
</g>
<!-- 3 -->
<g id="node4" class="node">
<title>3</title>
<path fill="none" stroke="#56d8c9" stroke-width="2" d="M217,-252C217,-252 100,-252 100,-252 94,-252 88,-246 88,-240 88,-240 88,-228 88,-228 88,-222 94,-216 100,-216 100,-216 217,-216 217,-216 223,-216 229,-222 229,-228 229,-228 229,-240 229,-240 229,-246 223,-252 217,-252"/>
<text text-anchor="middle" x="158.5" y="-231.5" font-family="sans" font-size="10.00">PAQ_infer_relative_usage</text>
</g>
<!-- 3&#45;&gt;2 -->
<g id="edge4" class="edge">
<title>3&#45;&gt;2</title>
<path fill="none" stroke="grey" stroke-width="2" d="M137.74,-215.7C127.26,-206.97 114.39,-196.24 103,-186.75"/>
<polygon fill="grey" stroke="grey" stroke-width="2" points="104.95,-183.82 95.03,-180.1 100.47,-189.19 104.95,-183.82"/>
</g>
<!-- 6 -->
<g id="node7" class="node">
<title>6</title>
<path fill="none" stroke="#c6d856" stroke-width="2" d="M306,-180C306,-180 179,-180 179,-180 173,-180 167,-174 167,-168 167,-168 167,-156 167,-156 167,-150 173,-144 179,-144 179,-144 306,-144 306,-144 312,-144 318,-150 318,-156 318,-156 318,-168 318,-168 318,-174 312,-180 306,-180"/>
<text text-anchor="middle" x="242.5" y="-159.5" font-family="sans" font-size="10.00">PAQ_relative_pas_positions</text>
</g>
<!-- 3&#45;&gt;6 -->
<g id="edge7" class="edge">
<title>3&#45;&gt;6</title>
<path fill="none" stroke="grey" stroke-width="2" d="M179.26,-215.7C189.74,-206.97 202.61,-196.24 214,-186.75"/>
<polygon fill="grey" stroke="grey" stroke-width="2" points="216.53,-189.19 221.97,-180.1 212.05,-183.82 216.53,-189.19"/>
</g>
<!-- 4 -->
<g id="node5" class="node">
<title>4</title>
<path fill="none" stroke="#56a2d8" stroke-width="2" d="M210.5,-324C210.5,-324 106.5,-324 106.5,-324 100.5,-324 94.5,-318 94.5,-312 94.5,-312 94.5,-300 94.5,-300 94.5,-294 100.5,-288 106.5,-288 106.5,-288 210.5,-288 210.5,-288 216.5,-288 222.5,-294 222.5,-300 222.5,-300 222.5,-312 222.5,-312 222.5,-318 216.5,-324 210.5,-324"/>
<text text-anchor="middle" x="158.5" y="-303.5" font-family="sans" font-size="10.00">PAQ_create_coverages</text>
</g>
<!-- 4&#45;&gt;3 -->
<g id="edge5" class="edge">
<title>4&#45;&gt;3</title>
<path fill="none" stroke="grey" stroke-width="2" d="M158.5,-287.7C158.5,-279.98 158.5,-270.71 158.5,-262.11"/>
<polygon fill="grey" stroke="grey" stroke-width="2" points="162,-262.1 158.5,-252.1 155,-262.1 162,-262.1"/>
</g>
<!-- 5 -->
<g id="node6" class="node">
<title>5</title>
<path fill="none" stroke="#56d87b" stroke-width="2" d="M199.5,-396C199.5,-396 117.5,-396 117.5,-396 111.5,-396 105.5,-390 105.5,-384 105.5,-384 105.5,-372 105.5,-372 105.5,-366 111.5,-360 117.5,-360 117.5,-360 199.5,-360 199.5,-360 205.5,-360 211.5,-366 211.5,-372 211.5,-372 211.5,-384 211.5,-384 211.5,-390 205.5,-396 199.5,-396"/>
<text text-anchor="middle" x="158.5" y="-375.5" font-family="sans" font-size="10.00">PAQ_create_outdir</text>
</g>
<!-- 5&#45;&gt;4 -->
<g id="edge6" class="edge">
<title>5&#45;&gt;4</title>
<path fill="none" stroke="grey" stroke-width="2" d="M158.5,-359.7C158.5,-351.98 158.5,-342.71 158.5,-334.11"/>
<polygon fill="grey" stroke="grey" stroke-width="2" points="162,-334.1 158.5,-324.1 155,-334.1 162,-334.1"/>
</g>
<!-- 6&#45;&gt;1 -->
<g id="edge2" class="edge">
<title>6&#45;&gt;1</title>
<path fill="none" stroke="grey" stroke-width="2" d="M221.74,-143.7C211.26,-134.97 198.39,-124.24 187,-114.75"/>
<polygon fill="grey" stroke="grey" stroke-width="2" points="188.95,-111.82 179.03,-108.1 184.47,-117.19 188.95,-111.82"/>
</g>
</g>
</svg>
