<?xml version="1.0" encoding="UTF-8" standalone="no"?>
<!DOCTYPE svg PUBLIC "-//W3C//DTD SVG 1.1//EN"
 "http://www.w3.org/Graphics/SVG/1.1/DTD/svg11.dtd">
<!-- Generated by graphviz version 2.38.0 (20140413.2041)
 -->
<!-- Title: snakemake_dag Pages: 1 -->
<svg width="446pt" height="548pt"
 viewBox="0.00 0.00 445.50 548.00" xmlns="http://www.w3.org/2000/svg" xmlns:xlink="http://www.w3.org/1999/xlink">
<g id="graph0" class="graph" transform="scale(1 1) rotate(0) translate(4 544)">
<title>snakemake_dag</title>
<polygon fill="white" stroke="none" points="-4,4 -4,-544 441.5,-544 441.5,4 -4,4"/>
<!-- 0 -->
<g id="node1" class="node"><title>0</title>
<path fill="none" stroke="#5692d8" stroke-width="2" d="M239.5,-36C239.5,-36 209.5,-36 209.5,-36 203.5,-36 197.5,-30 197.5,-24 197.5,-24 197.5,-12 197.5,-12 197.5,-6 203.5,-0 209.5,-0 209.5,-0 239.5,-0 239.5,-0 245.5,-0 251.5,-6 251.5,-12 251.5,-12 251.5,-24 251.5,-24 251.5,-30 245.5,-36 239.5,-36"/>
<text text-anchor="middle" x="224.5" y="-15.5" font-family="sans" font-size="10.00">KPC_all</text>
</g>
<!-- 1 -->
<g id="node2" class="node"><title>1</title>
<path fill="none" stroke="#56d873" stroke-width="2" d="M272.5,-108C272.5,-108 176.5,-108 176.5,-108 170.5,-108 164.5,-102 164.5,-96 164.5,-96 164.5,-84 164.5,-84 164.5,-78 170.5,-72 176.5,-72 176.5,-72 272.5,-72 272.5,-72 278.5,-72 284.5,-78 284.5,-84 284.5,-84 284.5,-96 284.5,-96 284.5,-102 278.5,-108 272.5,-108"/>
<text text-anchor="middle" x="224.5" y="-87.5" font-family="sans" font-size="10.00">KPC_collapse_results</text>
</g>
<!-- 1&#45;&gt;0 -->
<g id="edge1" class="edge"><title>1&#45;&gt;0</title>
<path fill="none" stroke="grey" stroke-width="2" d="M224.5,-71.6966C224.5,-63.9827 224.5,-54.7125 224.5,-46.1124"/>
<polygon fill="grey" stroke="grey" stroke-width="2" points="228,-46.1043 224.5,-36.1043 221,-46.1044 228,-46.1043"/>
</g>
<!-- 2 -->
<g id="node3" class="node"><title>2</title>
<path fill="none" stroke="#70d856" stroke-width="2" d="M335,-180C335,-180 114,-180 114,-180 108,-180 102,-174 102,-168 102,-168 102,-156 102,-156 102,-150 108,-144 114,-144 114,-144 335,-144 335,-144 341,-144 347,-150 347,-156 347,-156 347,-168 347,-168 347,-174 341,-180 335,-180"/>
<text text-anchor="middle" x="224.5" y="-159.5" font-family="sans" font-size="10.00">KPC_calculate_Zscores_statistical_significancy</text>
</g>
<!-- 2&#45;&gt;1 -->
<g id="edge2" class="edge"><title>2&#45;&gt;1</title>
<path fill="none" stroke="grey" stroke-width="2" d="M224.5,-143.697C224.5,-135.983 224.5,-126.712 224.5,-118.112"/>
<polygon fill="grey" stroke="grey" stroke-width="2" points="228,-118.104 224.5,-108.104 221,-118.104 228,-118.104"/>
</g>
<!-- 3 -->
<g id="node4" class="node"><title>3</title>
<path fill="none" stroke="#d8cb56" stroke-width="2" d="M284,-252C284,-252 165,-252 165,-252 159,-252 153,-246 153,-240 153,-240 153,-228 153,-228 153,-222 159,-216 165,-216 165,-216 284,-216 284,-216 290,-216 296,-222 296,-228 296,-228 296,-240 296,-240 296,-246 290,-252 284,-252"/>
<text text-anchor="middle" x="224.5" y="-231.5" font-family="sans" font-size="10.00">KPC_extend_result_tables</text>
</g>
<!-- 3&#45;&gt;2 -->
<g id="edge3" class="edge"><title>3&#45;&gt;2</title>
<path fill="none" stroke="grey" stroke-width="2" d="M224.5,-215.697C224.5,-207.983 224.5,-198.712 224.5,-190.112"/>
<polygon fill="grey" stroke="grey" stroke-width="2" points="228,-190.104 224.5,-180.104 221,-190.104 228,-190.104"/>
</g>
<!-- 4 -->
<g id="node5" class="node"><title>4</title>
<path fill="none" stroke="#afd856" stroke-width="2" d="M278,-324C278,-324 171,-324 171,-324 165,-324 159,-318 159,-312 159,-312 159,-300 159,-300 159,-294 165,-288 171,-288 171,-288 278,-288 278,-288 284,-288 290,-294 290,-300 290,-300 290,-312 290,-312 290,-318 284,-324 278,-324"/>
<text text-anchor="middle" x="224.5" y="-303.5" font-family="sans" font-size="10.00">KPC_run_KAPAC_model</text>
</g>
<!-- 4&#45;&gt;3 -->
<g id="edge4" class="edge"><title>4&#45;&gt;3</title>
<path fill="none" stroke="grey" stroke-width="2" d="M224.5,-287.697C224.5,-279.983 224.5,-270.712 224.5,-262.112"/>
<polygon fill="grey" stroke="grey" stroke-width="2" points="228,-262.104 224.5,-252.104 221,-262.104 228,-262.104"/>
</g>
<!-- 5 -->
<g id="node6" class="node"><title>5</title>
<path fill="none" stroke="#d85656" stroke-width="2" d="M425.5,-396C425.5,-396 251.5,-396 251.5,-396 245.5,-396 239.5,-390 239.5,-384 239.5,-384 239.5,-372 239.5,-372 239.5,-366 245.5,-360 251.5,-360 251.5,-360 425.5,-360 425.5,-360 431.5,-360 437.5,-366 437.5,-372 437.5,-372 437.5,-384 437.5,-384 437.5,-390 431.5,-396 425.5,-396"/>
<text text-anchor="middle" x="338.5" y="-375.5" font-family="sans" font-size="10.00">KPC_select_pas_expression_columns</text>
</g>
<!-- 5&#45;&gt;4 -->
<g id="edge5" class="edge"><title>5&#45;&gt;4</title>
<path fill="none" stroke="grey" stroke-width="2" d="M310.612,-359.876C295.707,-350.724 277.171,-339.342 261.118,-329.485"/>
<polygon fill="grey" stroke="grey" stroke-width="2" points="262.848,-326.44 252.495,-324.19 259.185,-332.405 262.848,-326.44"/>
</g>
<!-- 6 -->
<g id="node7" class="node"><title>6</title>
<path fill="none" stroke="#56d8a9" stroke-width="2" d="M209,-396C209,-396 12,-396 12,-396 6,-396 1.42109e-14,-390 1.42109e-14,-384 1.42109e-14,-384 1.42109e-14,-372 1.42109e-14,-372 1.42109e-14,-366 6,-360 12,-360 12,-360 209,-360 209,-360 215,-360 221,-366 221,-372 221,-372 221,-384 221,-384 221,-390 215,-396 209,-396"/>
<text text-anchor="middle" x="110.5" y="-375.5" font-family="sans" font-size="10.00">KPC_create_polyA_site_to_exon_mapping</text>
</g>
<!-- 6&#45;&gt;4 -->
<g id="edge6" class="edge"><title>6&#45;&gt;4</title>
<path fill="none" stroke="grey" stroke-width="2" d="M138.388,-359.876C153.293,-350.724 171.829,-339.342 187.882,-329.485"/>
<polygon fill="grey" stroke="grey" stroke-width="2" points="189.815,-332.405 196.505,-324.19 186.152,-326.44 189.815,-332.405"/>
</g>
<!-- 7 -->
<g id="node8" class="node"><title>7</title>
<path fill="none" stroke="#d88d56" stroke-width="2" d="M389.5,-468C389.5,-468 231.5,-468 231.5,-468 225.5,-468 219.5,-462 219.5,-456 219.5,-456 219.5,-444 219.5,-444 219.5,-438 225.5,-432 231.5,-432 231.5,-432 389.5,-432 389.5,-432 395.5,-432 401.5,-438 401.5,-444 401.5,-444 401.5,-456 401.5,-456 401.5,-462 395.5,-468 389.5,-468"/>
<text text-anchor="middle" x="310.5" y="-447.5" font-family="sans" font-size="10.00">KPC_tag_overlapping_polyA_sites</text>
</g>
<!-- 7&#45;&gt;5 -->
<g id="edge7" class="edge"><title>7&#45;&gt;5</title>
<path fill="none" stroke="grey" stroke-width="2" d="M317.421,-431.697C320.575,-423.813 324.378,-414.304 327.881,-405.546"/>
<polygon fill="grey" stroke="grey" stroke-width="2" points="331.194,-406.689 331.658,-396.104 324.695,-404.089 331.194,-406.689"/>
</g>
<!-- 8 -->
<g id="node9" class="node"><title>8</title>
<path fill="none" stroke="#56c9d8" stroke-width="2" d="M278.5,-540C278.5,-540 196.5,-540 196.5,-540 190.5,-540 184.5,-534 184.5,-528 184.5,-528 184.5,-516 184.5,-516 184.5,-510 190.5,-504 196.5,-504 196.5,-504 278.5,-504 278.5,-504 284.5,-504 290.5,-510 290.5,-516 290.5,-516 290.5,-528 290.5,-528 290.5,-534 284.5,-540 278.5,-540"/>
<text text-anchor="middle" x="237.5" y="-519.5" font-family="sans" font-size="10.00">KPC_create_outdir</text>
</g>
<!-- 8&#45;&gt;6 -->
<g id="edge8" class="edge"><title>8&#45;&gt;6</title>
<path fill="none" stroke="grey" stroke-width="2" d="M222.181,-503.871C199.869,-478.924 158.303,-432.45 132.656,-403.773"/>
<polygon fill="grey" stroke="grey" stroke-width="2" points="135.149,-401.31 125.873,-396.189 129.931,-405.976 135.149,-401.31"/>
</g>
<!-- 8&#45;&gt;7 -->
<g id="edge9" class="edge"><title>8&#45;&gt;7</title>
<path fill="none" stroke="grey" stroke-width="2" d="M255.545,-503.697C264.562,-495.05 275.618,-484.449 285.443,-475.027"/>
<polygon fill="grey" stroke="grey" stroke-width="2" points="287.867,-477.552 292.663,-468.104 283.022,-472.499 287.867,-477.552"/>
</g>
</g>
</svg>
